<?xml version="1.0" standalone="no"?><!DOCTYPE svg PUBLIC "-//W3C//DTD SVG 1.1//EN" "http://www.w3.org/Graphics/SVG/1.1/DTD/svg11.dtd"><svg t="1591822113142" class="icon" viewBox="0 0 1024 1024" version="1.1" xmlns="http://www.w3.org/2000/svg" p-id="2552" data-spm-anchor-id="a313x.7781069.0.i6" xmlns:xlink="http://www.w3.org/1999/xlink" width="200" height="200"><defs><style type="text/css"></style></defs><path d="M704.981333 339.392S424.576 109.354667 219.584 155.434667C173.589333 168.021333 357.589333 326.336 533.333333 426.666667c96.213333-46.037333 171.648-87.274667 171.648-87.274667z" fill="#5cdbd3" p-id="2553" data-spm-anchor-id="a313x.7781069.0.i3" class=""></path><path d="M738.304 316.074667c0.32-4.885333 0.896-9.728 1.813333-14.528 8.853333-46.293333 51.52-67.008 70.549334-107.413334 0 0-85.333333-42.666667-148.16-14.677333-47.381333 21.12-32.042667 71.146667-46.549334 111.253333-16.341333 45.205333-47.936 53.952-61.290666 127.424-13.930667 76.672-9.664 194.282667-5.013334 266.624 2.453333 38.4 5.013333 64.064 5.013334 64.064s191.914667-213.248 192-330.624c0.021333-33.642667-10.56-68.394667-8.362667-102.122666z" fill="#006d75" p-id="2554" data-spm-anchor-id="a313x.7781069.0.i0" class=""></path><path d="M602.410667 325.312S277.333333 151.488 85.333333 236.821333c-42.666667 21.333333 213.333333 192 405.333334 256 85.333333-64 111.744-167.509333 111.744-167.509333z" fill="#006d75" p-id="2555" data-spm-anchor-id="a313x.7781069.0.i8" class=""></path><path d="M738.304 316.074667c0.234667-3.498667 0.768-6.954667 1.322667-10.410667-44.053333-22.869333-96.32-25.429333-120.448-26.005333a102.826667 102.826667 0 0 1-3.2 11.072 138.410667 138.410667 0 0 1-17.173334 32.448c30.08 15.936 120.384 72.768 125.909334 178.816 13.397333-30.250667 21.930667-59.157333 21.952-83.818667 0.021333-33.621333-10.56-68.373333-8.362667-102.101333z" fill="#5cdbd3" p-id="2556" data-spm-anchor-id="a313x.7781069.0.i5" class=""></path><path d="M704 215.488m-21.333333 0a21.333333 21.333333 0 1 0 42.666666 0 21.333333 21.333333 0 1 0-42.666666 0Z" p-id="2557" data-spm-anchor-id="a313x.7781069.0.i11" class="" fill="#262626"></path><path d="M576 386.154667s-176.704-173.717333-362.645333-173.226667c-45.994667 0.106667-89.941333 6.976-128.021334 23.893333-42.666667 21.333333 213.333333 192 405.333334 256 64-21.333333 85.333333-106.666667 85.333333-106.666666zM554.666667 748.821333L512 874.666667s22.869333 42.666667 85.333333 42.666666c64 0 85.333333-42.666667 85.333334-42.666666l-93.546667-166.485334C568.704 733.184 554.666667 748.821333 554.666667 748.821333z" fill="#87e8de" p-id="2558" data-spm-anchor-id="a313x.7781069.0.i9" class=""></path><path d="M444.885333 476.010667c41.664-29.077333 99.562667-68.714667 130.133334-86.357334l0.981333-3.498666s-25.472-25.002667-67.136-55.957334c-51.370667 10.773333-139.477333 33.856-212.608 75.498667 15.04 8.192 30.357333 16.234667 45.866667 24 66.026667-32.256 140.714667-50.581333 182.592-59.093333-40.576 25.984-94.336 63.381333-126.272 85.824 15.594667 6.997333 31.104 13.504 46.442666 19.584zM434.666667 281.472L426.666667 276.864a567.488 567.488 0 0 0-96.32-43.2c-60.906667 1.429333-142.762667 10.922667-224.981334 44.736 10.048 9.386667 22.784 19.904 37.781334 31.125333 116.437333-41.578667 229.226667-33.6 268.245333-30.869333 7.125333 0.490667 20.309333 2.816 23.274667 2.816zM508.330667 330.154667L490.666667 317.056a758.186667 758.186667 0 0 0-54.528-34.965333c-62.08 4.992-164.416 19.84-241.728 63.04 13.312 8.661333 27.392 17.493333 42.133333 26.368 105.472-48.384 251.797333-51.690667 271.786667-41.344z" fill="#5cdbd3" p-id="2559" data-spm-anchor-id="a313x.7781069.0.i7" class=""></path><path d="M538.666667 900.992zM565.376 912.725333zM580.053333 915.882667zM589.12 708.181333zM551.616 757.781333l3.050667-8.96L512 874.666667s8.021333 14.250667 26.602667 26.282666l13.013333-143.168zM654.784 902.250667c-2.133333 1.28-4.458667 2.496-6.869333 3.669333 2.410667-1.216 4.778667-2.368 6.869333-3.669333zM644.074667 907.712zM589.546667 812.053333l-9.429334 103.808c5.44 0.768 10.986667 1.472 17.216 1.472 9.877333 0 18.389333-1.258667 26.304-2.965333l-34.090666-102.314667zM611.754667 748.437333l3.797333 6.762667 47.210667 141.632c-0.490667 0.384-1.130667 0.746667-1.621334 1.130667C676.352 886.677333 682.666667 874.666667 682.666667 874.666667l-70.912-126.229334z" fill="#5cdbd3" p-id="2560" data-spm-anchor-id="a313x.7781069.0.i12" class=""></path><path d="M760.021333 210.154667s11.690667-22.826667 20.842667-27.498667 18.325333-8.448 27.904-12.16a324.202667 324.202667 0 0 1 57.386667-15.317333c38.592-6.741333 77.354667-7.168 115.178666-3.690667-37.824 3.605333-75.072 11.242667-109.632 24.298667-17.28 6.464-33.834667 14.336-49.194666 23.573333a219.733333 219.733333 0 0 0-26.837334 18.965333c-4.906667 4.138667-35.648-8.170667-35.648-8.170666z" fill="#262626" p-id="2561" data-spm-anchor-id="a313x.7781069.0.i10" class=""></path></svg>
